<svg width="684" height="571" viewBox="0 0 684 571" fill="none" xmlns="http://www.w3.org/2000/svg">
<path d="M457.341 327.921H457.126H457.341ZM156.903 432.877C158.27 433.093 165.754 433.453 165.754 432.157C165.754 431.402 164.387 431.438 164.387 431.438C164.567 425.681 171.871 424.242 177.088 427.264C178.526 428.091 179.856 429.095 181.046 430.25C173.67 430.646 163.883 435.683 164.531 442.987C164.903 444.892 165.702 446.688 166.867 448.239C168.032 449.791 169.534 451.059 171.259 451.947C173.416 453.561 175.873 454.729 178.486 455.384C181.099 456.039 183.816 456.167 186.479 455.761C191.222 454.551 195.395 451.727 198.281 447.773C204.802 447.98 211.183 445.849 216.271 441.764C216.486 441.594 216.664 441.382 216.794 441.14C216.924 440.899 217.003 440.634 217.027 440.361C217.027 439.102 217.027 439.174 209.831 431.186C209.627 430.958 209.372 430.783 209.086 430.675C208.801 430.567 208.494 430.529 208.19 430.564C207.887 430.6 207.597 430.707 207.344 430.878C207.091 431.049 206.882 431.278 206.736 431.546C206.612 431.703 206.504 431.871 206.413 432.049C205.841 433.123 204.917 433.966 203.797 434.438C202.676 434.91 201.427 434.981 200.26 434.64C196.662 433.597 192.02 424.062 183.565 418.377C176.189 413.411 166.294 411.936 159.314 417.837C156.31 420.416 154.174 423.859 153.197 427.696C152.809 428.879 152.886 430.166 153.413 431.294C154.358 432.209 155.592 432.769 156.903 432.877ZM170.432 446.226C169.445 445.521 168.761 444.471 168.514 443.284C168.267 442.097 168.477 440.861 169.101 439.821C170.696 437.616 172.914 435.937 175.469 435C173.408 438.495 171.719 442.197 170.432 446.046V446.226ZM204.326 440.541C205.189 437.95 204.326 438.85 205.765 438.202C206.855 437.659 207.842 436.928 208.679 436.043L211.954 439.929C209.242 441.648 206.244 442.867 203.102 443.527C203.462 442.592 204.038 441.152 204.326 440.361V440.541ZM191.301 431.366C194.719 435.647 197.561 439.461 202.778 439.03C202.034 440.579 201.432 442.193 200.979 443.851C198.353 444.031 197.993 443.419 196.95 443.851C194.899 444.643 191.517 452.019 183.313 451.983C183.824 450.842 184.151 449.627 184.284 448.385C186.606 447.916 188.779 446.891 190.617 445.398C191.405 444.715 191.917 443.769 192.056 442.736C192.056 441.476 191.624 439.857 188.962 437.734C189.954 435.633 190.737 433.44 191.301 431.186V431.366ZM179.211 444.966C176.045 443.275 181.442 440.289 184.932 440.397C185.734 440.403 186.518 440.636 187.193 441.069C187.868 441.502 188.406 442.117 188.746 442.844C188.265 443.617 187.632 444.285 186.884 444.805C186.136 445.326 185.29 445.688 184.397 445.87C183.505 446.052 182.584 446.05 181.692 445.863C180.801 445.677 179.956 445.311 179.211 444.786V444.966ZM183.457 422.946C185.9 425.023 188.119 427.351 190.077 429.89C188.939 431.967 188.068 434.179 187.487 436.475C185.975 436.041 184.39 435.922 182.83 436.127C181.27 436.331 179.769 436.854 178.42 437.662C171.835 441.26 173.382 449.14 182.521 448.241C181.984 449.276 181.585 450.376 181.334 451.515C177.685 450.788 174.273 449.169 171.403 446.801C173.954 442.838 175.94 438.539 177.304 434.028C178.703 433.386 180.216 433.029 181.755 432.98C183.293 432.93 184.826 433.189 186.263 433.74L187.019 430.898L186.227 430.538C184.536 429.387 183.781 428.487 181.838 426.94C182.559 425.626 183.103 424.223 183.457 422.766V422.946ZM169.496 417.189C173.999 417.272 178.359 418.784 181.946 421.507C181.301 422.973 180.819 424.506 180.506 426.077C178.782 424.723 176.747 423.82 174.586 423.45C172.425 423.079 170.206 423.252 168.129 423.954C168.888 421.771 169.348 419.496 169.496 417.189ZM161.257 419.996C163.251 418.444 165.649 417.495 168.165 417.261C167.049 419.68 166.355 422.272 166.114 424.925C165.042 425.568 164.165 426.49 163.575 427.593C162.986 428.695 162.707 429.937 162.768 431.186C160.247 431.325 157.724 430.945 155.356 430.07C155.891 426.074 157.987 422.452 161.185 419.996H161.257ZM107.502 413.987C101.025 411.181 86.633 419.492 84.0064 423.954C83.6265 424.938 83.6265 426.028 84.0064 427.012C86.2732 435.611 107.43 465.979 111.352 470.693C112.035 471.556 112.971 470.369 112.359 469.361C110.488 466.267 110.704 472.492 120.275 441.512C121.161 441.165 121.987 440.679 122.722 440.073C123.055 439.703 123.24 439.222 123.24 438.724C123.24 438.225 123.055 437.745 122.722 437.374C122.395 436.971 122.02 436.608 121.606 436.295L123.873 427.912L132.868 432.877C131.049 437.424 129.722 442.152 128.91 446.981C125.283 448.289 121.883 450.159 118.836 452.522C116.713 454.861 120.059 459.179 122.146 461.769C124.233 464.36 125.996 466.123 126.392 466.519C126.787 466.915 128.047 466.519 127.939 465.871C127.71 465.35 127.407 464.866 127.039 464.432C125.09 461.397 123.416 458.194 122.038 454.861C124.834 453.188 127.787 451.79 130.853 450.687C131.969 450.292 135.423 449.212 136.358 449.788C140.974 452.22 145.789 454.254 150.75 455.869C150.951 455.964 151.181 455.976 151.39 455.902C151.599 455.827 151.77 455.673 151.866 455.473C151.961 455.272 151.973 455.042 151.899 454.833C151.825 454.624 151.67 454.453 151.47 454.357L145.245 450.579C146.571 447.575 147.42 444.382 147.764 441.116L163.128 449.428C164.063 449.968 164.783 448.492 164.099 448.097C163.416 447.701 116.785 418.053 107.502 413.987ZM102.033 417.801C103.288 417.424 104.627 417.424 105.883 417.801C106.71 418.161 108.725 419.24 111.46 420.751C110.537 423.298 109.909 425.942 109.589 428.631C107.178 427.264 105.739 426.22 103.832 426.544C102.792 426.777 101.82 427.245 100.989 427.912C101.349 425.105 101.673 422.946 102.033 417.801ZM87.6404 425.717C91.3721 422.159 95.8992 419.544 100.845 418.089C98.9251 426.576 97.5787 435.183 96.8155 443.851C93.1873 438.105 90.1265 432.019 87.6764 425.681L87.6404 425.717ZM103.976 455.976C101.997 452.702 99.8379 449.068 97.787 445.506C99.0103 440.361 99.4061 437.986 100.162 433.129C102.13 436.543 104.407 439.771 106.962 442.772C105.511 447.056 104.522 451.482 104.012 455.976H103.976ZM110.272 466.339C108.977 464.288 107.322 461.517 105.163 457.955C106.529 453.441 107.433 448.8 107.862 444.103C108.653 446.01 115.705 443.275 117.612 442.556C116.209 446.981 111.316 462.381 110.308 466.339H110.272ZM109.193 442.987C106.963 439.129 104.992 435.126 103.292 431.006L104.407 430.394C104.911 430.682 117.217 437.95 118.116 438.526C115.312 440.309 112.334 441.804 109.229 442.987H109.193ZM119.987 435.072C117.288 433.273 113.618 431.078 110.812 429.459C111.772 426.911 112.401 424.251 112.683 421.543L122.901 427.3C122.722 428.667 121.498 431.474 120.203 435.072H119.987ZM143.806 449.464L138.265 446.118C135.803 445.146 133.063 445.146 130.601 446.118C131.996 441.912 133.007 437.589 133.624 433.201L146.649 440.397C145.318 443.331 144.433 446.448 144.022 449.644L143.806 449.464Z" fill="white"/>
<path d="M681.681 462.273C675.852 408.014 625.623 324.575 595.615 278.988C612.37 280.328 629.186 280.748 645.988 280.247C650.773 280.247 663.294 279.383 665.705 278.916C667.108 278.628 667.324 277.297 665.201 277.225C663.079 277.153 647.967 276.433 645.916 276.397H609.324C603.711 276.613 594.931 277.117 594.428 277.117C583.633 260.673 576.113 250.383 576.042 250.347C575.959 250.263 575.859 250.198 575.749 250.156C575.639 250.114 575.521 250.095 575.404 250.102C575.286 250.109 575.171 250.141 575.067 250.196C574.963 250.251 574.872 250.327 574.799 250.42C574.727 250.513 574.675 250.621 574.648 250.735C574.62 250.85 574.618 250.969 574.64 251.085C574.662 251.2 574.709 251.31 574.777 251.406C574.845 251.502 574.932 251.583 575.034 251.642C576.689 252.974 649.406 359.224 671.642 432.409C680.457 461.445 685.674 497.894 657.25 507.968C589.75 532.075 61.0866 539.919 11.1095 511.566C4.16526 507.645 2.54613 499.477 3.91339 488.467C6.03625 473.175 14.2758 452.486 24.2065 429.315C35.3964 440.109 128.226 525.347 143.266 522.145C158.306 518.942 242.897 479.652 246.387 472.132C248.414 466.908 249.487 461.363 249.553 455.76C249.979 455.174 250.178 454.453 250.111 453.732C250.045 453.01 249.719 452.337 249.193 451.839C243.616 446.298 132.976 358.577 125.852 358.829C120.886 359.045 111.891 364.154 107.61 366.672C106.221 364.401 104.155 362.623 101.701 361.59C99.2477 360.557 96.5318 360.321 93.9369 360.916C91.4904 361.904 89.2997 363.434 87.5298 365.391C85.7599 367.348 84.4567 369.68 83.7184 372.213C83.7588 372.408 83.8649 372.582 84.0189 372.708C84.1729 372.833 84.3654 372.902 84.564 372.902C84.7626 372.902 84.9551 372.833 85.1091 372.708C85.2631 372.582 85.3692 372.408 85.4095 372.213C87.5737 368.554 91.0044 365.814 95.0523 364.514C96.7354 364.255 98.4573 364.48 100.018 365.161C101.578 365.843 102.913 366.953 103.868 368.364L63.8571 385.454C61.7327 383.27 59.0806 381.672 56.1573 380.813C49.321 379.014 44.7154 383.511 41.9809 390.096C41.9207 390.285 41.9276 390.49 42.0006 390.674C42.0735 390.859 42.208 391.013 42.3814 391.111C42.5547 391.208 42.7563 391.242 42.952 391.208C43.1478 391.174 43.3259 391.073 43.4561 390.923C48.0616 384.267 53.3868 382 59.7553 387.325C52.0555 390.743 41.2973 395.601 33.7413 399.343C34.281 398.479 111.927 257.867 111.927 257.507C115.345 251.175 122.218 239.841 129.306 238.365C132.51 237.667 135.778 237.305 139.057 237.286C134.055 245.562 93.4692 312.845 93.3972 322.344C93.3972 333.138 95.2682 331.447 101.025 333.138C106.782 334.83 428.917 332.851 429.492 332.851C435.069 332.851 456.874 332.131 458.888 330.656C465.149 326.05 463.746 319.178 461.011 311.946C460.364 310.219 457.09 303.059 452.7 293.488C471.59 287.803 485.802 295.035 487.097 325.87C488.393 352.532 477.886 360.664 457.773 359.512C441.618 358.577 430.464 353.827 426.938 360.124C422.98 367.14 433.918 382.9 438.667 389.448C437.984 389.448 407.868 388.836 400.276 388.513C389.578 388.098 378.866 388.23 368.181 388.908C360.823 389.07 353.508 390.072 346.377 391.895C343.679 393.226 340.188 400.17 338.713 403.085C335.799 408.806 322.522 444.714 318.852 455.077C316.693 461.05 309.389 480.839 314.282 484.329C314.102 488.179 314.714 493.324 318.096 495.123C321.478 496.922 367.965 498.218 371.528 498.29C377.824 498.469 441.474 499.297 482.096 497.498C522.718 495.699 540.457 491.813 539.413 491.921C540.445 491.617 541.372 491.032 542.09 490.232C542.808 489.431 543.289 488.446 543.479 487.387C544.034 484.728 543.86 481.968 542.975 479.4C547.509 470.584 513.219 397.4 503.72 392.255C503.159 391.939 502.529 391.766 501.885 391.751C499.978 391.751 457.305 389.952 440.718 389.412C437.12 384.339 425.427 365.233 429.924 361.167C436.76 355.195 493.862 385.13 490.803 325.547C489.22 298.597 476.807 282.802 451.62 291.941C449.426 287.191 431.004 247.828 426.074 237.358C445.17 238.501 464.328 238.079 483.355 236.099C483.629 239.457 484.595 242.722 486.192 245.688C487.79 248.654 489.985 251.257 492.638 253.333C507.031 264.128 564.312 262.509 574.71 249.304C577.624 245.319 579.638 240.749 580.613 235.91C581.589 231.07 581.502 226.077 580.359 221.275C581.316 220.666 582.058 219.772 582.482 218.72C583.058 217.605 582.482 216.201 579.999 215.698C576.797 215.218 573.557 215.025 570.32 215.122C570.32 212.172 570.5 206.667 570.32 200.406C570.644 200.19 572.983 197.384 573.235 197.06C576.102 193.709 578.367 189.886 579.927 185.762C581.115 182.416 581.582 178.566 578.452 176.695C573.631 174.068 570.249 178.889 568.629 184.287C567.118 175.975 563.628 163.778 555.281 165.001C541.104 167.16 550.891 201.521 555.497 215.122C551.451 214.552 547.345 214.552 543.299 215.122C547.797 203.824 550.099 189.216 538.55 187.021C536.799 186.634 534.973 186.768 533.297 187.408C531.622 188.047 530.17 189.164 529.123 190.619C528.892 189.805 528.458 189.062 527.861 188.462C527.265 187.861 526.526 187.421 525.713 187.184C524.901 186.947 524.041 186.919 523.215 187.105C522.389 187.29 521.624 187.682 520.991 188.244C515.702 192.058 518.724 200.802 524.877 203.68C524.553 207.379 524.553 211.099 524.877 214.798C521.047 214.335 517.17 214.42 513.363 215.05C513.15 206.265 512.187 197.514 510.485 188.892C512.671 187.337 514.51 185.343 515.885 183.039C517.26 180.735 518.141 178.17 518.472 175.507C518.976 170.722 517.285 166.728 513.291 165.685C508.29 164.389 505.34 167.879 504.476 172.881C500.05 166.764 491.379 164.569 487.169 171.585C473.677 157.553 467.164 165.397 470.582 171.585C473.137 176.335 479.793 178.997 484.974 180.473C484.974 188.532 488.573 195.333 493.034 202.277C496.021 206.954 499.367 211.452 501.957 214.762C496.359 214.582 490.756 214.944 485.226 215.842C481.844 216.741 481.304 219.188 484.435 220.951C483.445 225.168 483.081 229.509 483.355 233.832C464.027 232.803 444.649 233.261 425.391 235.199C424.167 232.573 420.533 224.909 420.101 224.009C419.67 223.11 423.124 212.675 427.981 115.671C450.289 113.8 550.603 116.031 559.814 112.469C560.342 112.28 560.81 111.953 561.171 111.523C561.531 111.093 561.771 110.575 561.865 110.023C564.923 99.9839 567.01 13.7024 561.865 5.67869C560.606 3.69975 556.108 3.08809 553.625 2.72828C521.567 -1.9492 387.791 0.0657062 380.918 3.69975C374.046 7.3338 376.961 42.8107 378.256 49.8629C308.777 47.6321 148.34 51.9858 133.228 57.6347C129.63 58.93 128.298 63.8594 127.579 67.5654C121.606 98.4008 138.373 197.635 143.986 228.291C143.626 228.291 143.986 228.291 139.596 235.127C135.881 234.852 132.146 235.045 128.478 235.703C120.275 236.962 112.719 248.296 108.545 255.348C108.365 255.708 97.7509 273.339 96.1677 276.217C87.1366 274.814 45.1472 275.354 39.8221 275.641C34.4969 275.929 29.0279 276.325 24.2065 276.685C23.3429 276.685 23.271 278.34 24.2065 278.376C34.281 278.988 37.9871 279.203 45.7949 279.311C64.9006 279.599 93.0734 280.391 93.9729 280.283C92.1019 283.557 64.3968 332.851 60.6908 339.831C44.5715 370.055 31.9063 397.724 31.1507 400.062C26.9681 401.964 23.0398 404.382 19.457 407.259C18.3014 410.429 17.6106 413.749 17.4061 417.117C17.2262 422.91 19.3131 424.313 22.5154 427.552C13.9229 445.962 6.85884 465.048 1.39475 484.617C-0.389076 492.534 -0.462678 500.74 1.17886 508.688C2.64797 516.633 5.39406 524.288 9.31049 531.356C11.0697 533.143 13.3495 534.326 15.823 534.738C25.2859 537.401 54.6101 540.819 64.4328 541.934C63.6923 546.331 63.4869 550.801 63.8211 555.247C63.8308 559.828 64.4973 564.384 65.8001 568.776C65.8119 568.884 65.845 568.99 65.8975 569.085C65.95 569.181 66.0209 569.266 66.1061 569.334C66.1913 569.403 66.2891 569.454 66.3941 569.485C66.499 569.515 66.6089 569.525 66.7176 569.513C66.8263 569.501 66.9316 569.468 67.0274 569.416C67.1233 569.363 67.2079 569.292 67.2764 569.207C67.3449 569.122 67.396 569.024 67.4266 568.919C67.4573 568.814 67.467 568.704 67.4552 568.596C68.0308 564.11 68.1874 559.581 67.9229 555.067C67.8993 550.721 67.4046 546.39 66.4477 542.15C71.4131 542.582 76.1985 542.942 80.3722 543.086C79.7085 547.285 79.5274 551.546 79.8325 555.787C79.8447 560.367 80.5111 564.923 81.8115 569.315C81.8115 569.535 81.8987 569.745 82.0539 569.901C82.209 570.056 82.4195 570.143 82.639 570.143C82.8585 570.143 83.069 570.056 83.2242 569.901C83.3794 569.745 83.4666 569.535 83.4666 569.315C84.0616 564.832 84.2303 560.302 83.9703 555.787C83.9456 551.585 83.463 547.398 82.5311 543.301C90.5548 543.481 208.643 554.096 412.581 550.066C467.236 548.986 532.937 546.468 587.052 540.531C586.337 544.87 586.132 549.277 586.44 553.664C586.457 558.235 587.136 562.78 588.455 567.157C588.429 567.277 588.431 567.402 588.46 567.522C588.489 567.641 588.544 567.753 588.621 567.849C588.699 567.945 588.797 568.022 588.908 568.075C589.019 568.128 589.141 568.156 589.264 568.156C589.388 568.156 589.509 568.128 589.621 568.075C589.732 568.022 589.83 567.945 589.907 567.849C589.985 567.753 590.04 567.641 590.069 567.522C590.098 567.402 590.099 567.277 590.074 567.157C590.702 562.676 590.871 558.143 590.578 553.628C590.538 549.183 590.02 544.756 589.03 540.423C593.024 539.991 602.271 538.84 603.063 538.732C602.355 543.047 602.161 547.432 602.487 551.793C602.489 556.374 603.156 560.931 604.466 565.321C604.49 565.541 604.6 565.742 604.772 565.88C604.944 566.019 605.164 566.083 605.384 566.059C605.603 566.035 605.804 565.925 605.942 565.753C606.081 565.581 606.145 565.361 606.121 565.142C606.714 560.67 606.87 556.151 606.589 551.649C606.566 547.215 606.047 542.798 605.042 538.48C621.269 536.285 670.886 529.593 677.651 515.74C685.638 499.945 684.991 479.4 681.681 462.273ZM354.257 404.344C354.653 403.373 366.706 400.746 379.875 404.344C379.996 404.319 380.12 404.32 380.24 404.349C380.36 404.378 380.472 404.433 380.568 404.511C380.663 404.588 380.741 404.686 380.794 404.798C380.847 404.909 380.874 405.03 380.874 405.154C380.874 405.277 380.847 405.399 380.794 405.51C380.741 405.621 380.663 405.719 380.568 405.797C380.472 405.874 380.36 405.929 380.24 405.958C380.12 405.987 379.996 405.989 379.875 405.963C373.318 407.128 366.622 407.298 360.014 406.467C356.919 405.963 352.997 405.927 354.149 404.344H354.257ZM539.233 489.906C505.951 496.239 322.09 494.799 319.32 493.504C316.549 492.209 316.297 488.035 316.225 485.301C336.159 491.777 530.922 486.776 541.752 481.055C542.328 484.221 542.471 489.294 539.125 489.906H539.233ZM469.395 404.74C469.395 403.517 477.311 402.833 477.67 402.797C482.377 402.435 487.104 402.435 491.811 402.797C494.437 403.085 498.071 403.445 497.784 404.56C497.496 405.675 492.063 406.143 491.127 406.287C487.611 406.611 484.08 406.755 480.549 406.719C478.174 406.647 469.143 406.215 469.287 404.74H469.395ZM515.63 416.721C524.632 433.874 532.19 451.746 538.226 470.153C538.993 472.477 539.417 474.902 539.485 477.349C523.258 482.386 336.231 487.567 317.305 482.134C316.405 481.882 316.153 482.134 315.937 480.623C314.57 470.836 330.582 431.941 334.288 422.874C402.363 420.607 514.91 417.117 515.522 416.721H515.63ZM485.334 178.854C481.399 176.692 477.829 173.923 474.756 170.65C473.353 168.527 473.677 167.052 477.814 169.067C480.405 170.254 484.039 172.377 486.486 173.852C485.857 175.453 485.469 177.139 485.334 178.854ZM571.688 185.294C574.566 180.113 577.409 178.638 577.121 181.696C575.575 187.169 573.376 192.436 570.572 197.384C570.357 193.785 570.105 191.375 569.817 189C569.961 188.496 570.68 186.985 571.58 185.294H571.688ZM556.396 216.597C557.116 218.648 557.583 219.871 557.619 219.943C557.659 220.045 557.719 220.138 557.794 220.217C557.87 220.296 557.961 220.359 558.061 220.402C558.162 220.446 558.27 220.469 558.379 220.471C558.489 220.472 558.597 220.452 558.699 220.411C560.282 219.799 557.943 218.324 554.201 196.628C553.086 190.151 549.776 170.182 556.324 169.247C561.649 168.455 564.528 181.66 565.535 186.877C567.402 196.934 568.604 207.102 569.133 217.317C569.131 217.516 569.2 217.71 569.329 217.862C569.457 218.014 569.637 218.115 569.833 218.145C570.03 218.176 570.232 218.134 570.401 218.029C570.569 217.923 570.694 217.759 570.752 217.569C570.764 217.365 570.764 217.161 570.752 216.957C574.005 217.053 577.238 217.499 580.395 218.288C579.993 218.757 579.488 219.127 578.92 219.368C571.364 223.254 548.516 222.498 540.636 222.354C541.716 220.195 542.471 218.54 543.299 216.561C547.599 217.268 551.984 217.28 556.288 216.597H556.396ZM528.331 208.717C529.159 201.521 530.994 190.043 538.262 191.411C545.53 192.778 543.695 203.32 542.112 210.373C541.136 214.418 539.934 218.406 538.514 222.318H527.719C527.633 217.779 527.801 213.238 528.223 208.717H528.331ZM523.762 191.807C523.929 191.647 524.128 191.524 524.345 191.447C524.563 191.369 524.794 191.337 525.025 191.354C525.255 191.371 525.48 191.436 525.684 191.545C525.887 191.654 526.066 191.804 526.208 191.986C526.781 192.56 527.299 193.187 527.755 193.857C526.733 196.152 526.02 198.572 525.633 201.054C523.762 198.463 521.351 193.749 523.762 191.807ZM512.428 169.93C517.105 171.405 513.435 183.711 510.305 187.453C509.44 183.58 508.149 179.815 506.455 176.227C507.498 173.061 509.261 168.923 512.428 169.894V169.93ZM503.576 216.993C505.34 219.224 506.491 220.591 506.491 220.591C506.634 220.732 506.823 220.816 507.023 220.828C507.224 220.84 507.422 220.779 507.58 220.655C507.739 220.532 507.847 220.355 507.885 220.158C507.923 219.961 507.888 219.757 507.786 219.584C507.786 219.584 501.418 210.516 496.164 201.125C492.207 193.929 488.429 186.733 489.472 178.782C490.3 172.521 493.61 169.858 499.187 173.492C507.246 178.674 510.917 210.624 512.068 220.267C512.079 220.52 512.168 220.762 512.323 220.962C512.477 221.162 512.69 221.309 512.931 221.383C513.903 221.383 513.759 220.339 513.723 219.835C513.687 219.332 513.723 216.813 513.723 216.561C517.546 217.045 521.414 217.045 525.237 216.561C525.453 219.188 525.705 221.239 525.884 222.318C513.111 222.318 497.676 223.182 487.097 219.044C492.534 217.968 498.042 217.283 503.576 216.993ZM486.342 222.282C491.605 224.322 497.151 225.535 502.785 225.88C509.153 226.456 552.51 226.528 557.44 226.276C564.873 226.154 572.232 224.779 579.208 222.21C579.877 226.628 579.625 231.137 578.467 235.453C577.309 239.769 575.271 243.799 572.479 247.289C563.736 257.543 508.434 259.882 495.157 250.527C486.414 244.518 484.831 232.501 486.342 222.246V222.282ZM457.341 327.921C458.097 330.332 115.022 330.44 114.662 330.404C100.27 330.404 103.868 330.404 99.0462 329.217C97.7509 328.929 97.499 328.929 97.2472 327.669C96.942 325.694 96.8575 323.691 96.9953 321.697C97.0707 321.844 97.1926 321.963 97.3421 322.034C97.4917 322.106 97.6606 322.126 97.8229 322.092C97.8229 322.092 457.233 317.199 459.572 317.127C460.544 321.337 460.688 325.259 457.341 327.921ZM558.555 109.555C558.555 109.555 558.771 109.195 558.843 109.303C558.915 109.411 558.555 109.519 558.375 109.555H558.555ZM379.623 18.8116C379.623 16.4729 380.559 7.62164 382.646 6.54222C387.395 4.1675 538.334 2.15259 558.951 8.59312C562.549 16.1491 561.397 101.027 558.375 109.555C540.672 112.325 451.584 112.109 428.413 114.484C429.816 86.1674 430.428 62.3122 429.276 57.6707C429.055 57.0654 428.695 56.5197 428.227 56.0765C427.759 55.6333 427.194 55.3045 426.578 55.1161C418.698 51.6979 389.05 50.7264 380.415 50.4386C379.294 39.9351 379.029 29.358 379.623 18.8116ZM130.817 109.411C130.277 101.855 127.615 63.7155 134.811 61.0529C138.409 59.7936 151.074 58.5342 169.46 57.4548C204.685 55.26 260.203 53.4969 310.72 53.1371C321.946 53.1371 416.791 52.3096 426.074 58.6782C428.809 71.1275 420.065 209.437 418.122 222.786C333.1 225.556 232.354 229.73 146.613 227.643C145.173 219.404 134.163 155.826 130.817 109.411ZM145.497 230.054C145.504 229.97 145.504 229.886 145.497 229.802C206.125 231.673 395.85 225.448 418.95 225.304C421.505 231.241 457.377 310.83 458.888 315.256C458.493 315.256 97.535 320.149 97.0673 320.509C101.601 305.325 139.093 241.136 145.497 230.054ZM244.408 471.124C241.745 476.305 161.077 512.358 144.49 517.359C144.811 515.701 144.932 514.009 144.85 512.322C169.352 503.831 222.532 481.415 246.387 465.547C245.932 467.484 245.269 469.366 244.408 471.16V471.124ZM246.891 463.172C239.694 467.418 232.822 470.369 144.814 510.379C144.817 508.75 144.599 507.128 144.166 505.558C155.68 500.161 233.758 469.901 247.682 457.847C247.502 459.395 247.25 461.265 246.891 463.208V463.172ZM61.5544 389.34C63.2846 391.378 64.3554 393.894 64.6252 396.553C64.895 399.213 64.3512 401.892 63.0656 404.236C62.4899 405.136 63.8571 406.071 64.4328 405.136C66.605 402.768 67.8891 399.72 68.0662 396.512C68.2434 393.304 67.3026 390.134 65.4043 387.541C82.8909 379.517 100.09 371.962 104.803 369.911C105.982 372.306 106.613 374.934 106.651 377.604C106.688 380.274 106.131 382.919 105.019 385.346C104.587 386.498 105.883 386.93 106.494 386.174C108.473 383.659 109.705 380.639 110.048 377.458C110.392 374.276 109.834 371.063 108.437 368.184C112.323 365.989 121.39 360.987 125.816 360.987C131.357 360.987 243.796 452.45 245.883 454.537C236.492 464.216 149.311 498.721 141.971 502.247C126.499 498.649 32.0862 417.441 23.235 409.094C28.74 404.524 55.3657 392.219 61.5544 389.34ZM20.5005 410.749C31.7264 421.723 125.384 503.471 141.072 506.061C140.757 507.417 140.612 508.807 140.64 510.199C115.453 497.894 43.4921 435.575 19.6729 415.534C19.7809 415.534 20.3206 412.008 20.6084 410.749H20.5005ZM21.0402 423.09C20.0252 421.545 19.5218 419.72 19.6009 417.873C43.1323 441.62 109.553 500.017 140.604 512.178C140.54 514.102 140.733 516.026 141.18 517.899C122.721 513.761 23.4869 426.04 21.1481 423.09H21.0402ZM675.888 514.553C652.644 560.68 21.9037 548.626 11.6852 530.636C7.35381 523.107 4.42775 514.853 3.04986 506.277C4.43787 509.317 6.75632 511.837 9.67029 513.473C62.6338 544.309 589.57 536.249 658.365 511.53C672.937 506.277 680.277 494.943 681.932 479.148C682.909 491.276 680.805 503.455 675.816 514.553H675.888Z" fill="white"/>
<path d="M137.114 269.848C391.533 273.447 415.82 271.252 422.944 270.136C424.635 269.884 425.714 269.309 425.642 267.33C425.642 262.113 413.409 238.185 410.171 236.53C408.732 235.775 151.11 239.409 150.211 239.697C150.043 239.737 149.886 239.812 149.75 239.918C149.613 240.023 149.5 240.156 149.419 240.308C146.972 244.302 135.027 264.02 135.567 268.481C135.625 268.854 135.812 269.194 136.094 269.443C136.376 269.693 136.737 269.836 137.114 269.848ZM151.254 242.179C153.845 241.856 407.292 239.337 408.839 239.481C411.526 243.345 413.931 247.397 416.036 251.606C410.135 251.606 146.397 253.01 145.029 253.045C146.613 249.879 148.699 246.281 151.254 242.179ZM144.058 254.773C145.461 254.773 412.33 253.405 416.899 253.297C419.267 257.706 421.137 262.364 422.476 267.186C409.667 269.237 292.946 268.229 138.409 267.186C139.853 262.828 141.721 258.622 143.986 254.629L144.058 254.773ZM335.691 282.082C334.973 280.493 333.8 279.153 332.321 278.231C330.841 277.309 329.122 276.846 327.379 276.901C318.24 276.901 241.494 274.778 234.585 277.584C230.175 282.928 226.762 289.022 224.511 295.575C224.295 297.158 225.086 297.877 226.058 297.985C247.646 300.324 319.212 302.555 337.778 299.137C340.08 298.705 340.368 296.258 339.901 293.919C338.787 289.877 337.38 285.92 335.691 282.082ZM227.065 295.575C229.132 289.736 231.937 284.186 235.413 279.06C240.882 277.26 312.016 281.002 327.487 280.966C328.408 280.933 329.319 281.167 330.111 281.64C330.902 282.112 331.541 282.803 331.949 283.629C333.698 287.366 335.06 291.272 336.015 295.287C317.772 298.129 240.306 296.51 227.065 295.575ZM585.576 286.687C580.503 279.707 555.065 280.031 546.537 280.283C539.341 280.283 513.183 281.47 513.183 288.522C513.213 289.094 513.379 289.65 513.667 290.144C513.955 290.638 514.356 291.057 514.838 291.365C515.522 291.905 510.809 339.327 517.285 364.765C519.408 373.185 522.143 377.359 530.166 380.849C545.566 387.541 571.112 386.066 581.367 371.782C583.418 367.608 582.986 355.446 583.166 351.74C599.105 354.907 612.166 348.43 615.548 331.267C617.671 320.221 614.937 312.989 610.223 308.6C607.074 306.036 603.352 304.272 599.373 303.457C595.395 302.643 591.279 302.802 587.375 303.922C587.239 303.968 587.094 303.981 586.952 303.959C586.81 303.937 586.675 303.882 586.558 303.797C586.442 303.713 586.348 303.602 586.283 303.473C586.219 303.344 586.186 303.202 586.188 303.059C586.188 301.152 586.872 288.235 585.576 286.687ZM517.213 287.443C526.928 281.758 566.507 281.326 579.28 287.119C579.712 287.335 581.331 288.163 581.331 288.522C581.331 288.882 579.676 289.746 579.28 289.926C569.637 294.279 535.203 296.258 517.105 289.638C515.846 288.954 517.105 287.587 517.105 287.443H517.213ZM588.383 307.592C591.653 306.65 595.103 306.514 598.436 307.197C601.77 307.88 604.889 309.362 607.525 311.514C611.41 315.112 613.353 321.301 611.554 330.476C611.197 333.666 610.091 336.726 608.328 339.408C606.565 342.09 604.194 344.318 601.408 345.912C595.507 348.567 588.863 349.076 582.626 347.351C582.319 347.24 581.993 347.193 581.668 347.213C581.342 347.233 581.025 347.32 580.734 347.469C580.444 347.617 580.187 347.824 579.98 348.076C579.774 348.328 579.621 348.62 579.532 348.934C578.56 351.668 579.927 362.714 577.949 369.695C568.845 382.036 545.566 383.151 531.785 377.359C524.805 374.372 522.862 371.278 520.991 363.83C516.17 346.163 515.882 310.183 516.961 292.48C528.295 297.841 567.55 299.389 582.986 291.473C582.986 302.627 581.619 304.498 584.425 306.765C584.968 307.174 585.594 307.46 586.259 307.603C586.924 307.746 587.612 307.742 588.275 307.592H588.383ZM238.867 383.835C229.418 375.821 219.252 368.691 208.499 362.535C204.357 360.091 199.951 358.123 195.366 356.67C191.516 355.662 189.897 357.641 190.689 360.268C192.311 364.039 194.455 367.564 197.057 370.738C205.336 381.218 214.857 390.654 225.41 398.839C241.458 412.26 262.254 428.523 277.438 440.073C278.212 440.638 279.09 441.043 280.023 441.265C280.955 441.486 281.922 441.518 282.867 441.361C283.812 441.203 284.716 440.859 285.526 440.347C286.337 439.836 287.036 439.167 287.585 438.382C290.247 435.467 291.902 430.358 288.916 427.588C285.462 424.493 264.341 404.596 238.867 383.835ZM204.398 375.847L199.468 367.896C201.223 367.167 202.707 365.909 203.714 364.298L211.522 367.464C209.562 367.853 207.792 368.892 206.499 370.414C205.205 371.936 204.465 373.851 204.398 375.847ZM215.444 385.022C212.843 382.834 210.436 380.427 208.247 377.826C208.499 373.473 209.867 371.53 214.22 371.386C217.121 372.772 219.86 374.473 222.388 376.459C220.453 376.93 218.726 378.023 217.472 379.57C216.218 381.117 215.505 383.032 215.444 385.022ZM276.97 437.374C272.977 434.028 219.869 388.98 216.595 386.102C216.87 384.088 217.749 382.204 219.118 380.701C220.486 379.197 222.279 378.145 224.259 377.682C236.672 386.893 254.519 402.149 285.642 428.055C284.43 427.994 283.22 428.198 282.096 428.654C280.972 429.11 279.961 429.806 279.135 430.694C278.308 431.582 277.686 432.64 277.312 433.794C276.939 434.948 276.822 436.17 276.97 437.374ZM562.081 477.241C566.579 480.299 569.709 478.896 572.623 474.65C579.819 464.432 605.006 419.204 605.006 418.844C605.006 418.484 605.294 419.168 604.106 404.632C604.055 404.085 603.858 403.563 603.535 403.119C603.212 402.675 602.775 402.326 602.271 402.109C601.767 401.892 601.214 401.814 600.669 401.885C600.125 401.955 599.609 402.171 599.177 402.509L586.872 411.468C586.872 411.468 559.562 467.922 559.275 468.426C558.781 470.005 558.785 471.699 559.287 473.276C559.789 474.853 560.765 476.237 562.081 477.241ZM600.184 406.899C600.4 409.525 600.688 413.015 600.904 415.426C598.231 414.147 595.434 413.146 592.557 412.44L600.184 406.899ZM589.894 414.886C593.013 417.097 596.615 418.528 600.4 419.06C599.861 419.996 572.371 470.153 572.084 470.656C571.248 468.956 569.875 467.58 568.176 466.741C566.478 465.901 564.551 465.646 562.693 466.015C565.499 460.798 588.887 416.685 589.894 414.886Z" fill="white"/>
<path d="M573.343 343.537C572.955 342.992 572.462 342.531 571.894 342.179C571.326 341.827 570.693 341.591 570.033 341.486C567.904 340.917 565.74 340.485 563.556 340.191C564.78 348.754 565.499 358.181 565.463 359.009C565.408 359.556 565.14 360.06 564.715 360.411C564.29 360.761 563.745 360.93 563.196 360.88C562.646 360.816 562.141 360.54 561.792 360.109C561.442 359.679 561.275 359.129 561.325 358.577C561.325 357.965 561.109 355.482 560.93 339.831C553.733 338.931 519.084 336.233 520.451 343.141C520.451 343.501 517.609 361.131 528.619 369.587C539.629 378.042 561.649 376.387 569.349 367.788C571.534 365.17 572.975 362.014 573.523 358.649C574.373 353.642 574.312 348.522 573.343 343.537ZM581.978 310.974C581.978 312.594 579.819 324.971 578.38 341.594L580.107 341.954C586.438 343.298 593.033 342.579 598.925 339.903C600.98 338.762 602.681 337.077 603.843 335.034C605.004 332.99 605.581 330.667 605.51 328.317C605.754 325.397 605.246 322.462 604.034 319.793C602.823 317.125 600.948 314.811 598.589 313.072C596.23 311.333 593.464 310.228 590.557 309.86C587.649 309.493 584.696 309.877 581.978 310.974ZM583.597 312.198C585.894 311.834 588.241 311.967 590.482 312.588C592.723 313.209 594.804 314.302 596.586 315.796C598.297 317.365 599.622 319.308 600.459 321.474C601.295 323.64 601.62 325.969 601.408 328.281C601.084 337.528 591.585 339.291 582.482 338.356C582.914 331.807 583.274 324.287 583.597 312.198ZM235.341 279.06C235.341 279.06 235.377 279.096 235.341 279.06V279.06ZM545.062 100.991C545.053 101.632 545.17 102.269 545.408 102.864C545.645 103.459 545.998 104.002 546.447 104.46C546.895 104.918 547.429 105.283 548.019 105.534C548.609 105.785 549.243 105.916 549.884 105.921C550.863 105.942 551.826 105.671 552.651 105.143C553.476 104.615 554.124 103.852 554.514 102.954C554.904 102.055 555.017 101.061 554.839 100.098C554.661 99.1345 554.2 98.2461 553.515 97.5459C552.831 96.8456 551.953 96.3653 550.994 96.1662C550.035 95.9671 549.038 96.0582 548.131 96.4279C547.224 96.7976 546.448 97.4292 545.901 98.242C545.354 99.0548 545.062 100.012 545.062 100.991ZM151.254 219.692C152.082 221.311 153.161 221.491 153.845 220.987C154.528 220.483 382.394 218.504 399.341 217.605C402.985 217.661 406.619 217.2 410.135 216.237C418.23 209.041 421.397 74.5097 418.23 68.285C410.135 52.1297 156.759 62.5282 141.179 67.2416C128.766 70.9836 145.533 208.214 151.254 219.692ZM140.496 73.0705C140.496 72.4228 141.287 69.9042 141.899 69.7243C159.134 64.5431 409.379 56.0157 416.179 69.5444C416.759 72.2513 417.025 75.0161 416.971 77.7839C417.583 93.4715 416.971 127.077 415.352 157.193C415.028 162.95 412.473 210.121 408.731 214.402C393.799 217.569 163.703 218.288 153.485 218.684C147.656 205.155 135.063 96.8177 140.496 73.0705ZM550.351 21.6541C551.329 21.6755 552.291 21.4056 553.115 20.8787C553.939 20.3519 554.587 19.5918 554.978 18.6953C555.369 17.7988 555.484 16.8064 555.309 15.8442C555.134 14.882 554.677 13.9936 553.996 13.292C553.314 12.5904 552.44 12.1073 551.483 11.9042C550.526 11.701 549.531 11.787 548.623 12.1512C547.716 12.5153 546.937 13.1412 546.386 13.9493C545.835 14.7573 545.537 15.7109 545.53 16.6888C545.516 17.3327 545.629 17.973 545.865 18.5725C546.1 19.172 546.453 19.7186 546.901 20.1807C547.35 20.6428 547.886 21.011 548.478 21.2639C549.071 21.5169 549.707 21.6495 550.351 21.6541Z" fill="white"/>
<path d="M210.91 163.742H253.655C258.601 163.723 263.338 161.742 266.826 158.234C270.313 154.726 272.266 149.978 272.257 145.032V110.346C272.257 105.389 270.306 100.632 266.824 97.103C263.343 93.5744 258.611 91.5588 253.655 91.4926H210.91C208.431 91.4831 205.975 91.9642 203.684 92.9084C201.392 93.8525 199.31 95.2409 197.557 96.9935C195.804 98.7462 194.416 100.828 193.472 103.12C192.528 105.412 192.047 107.868 192.056 110.346V145.032C192.065 147.498 192.561 149.939 193.513 152.214C194.466 154.489 195.857 156.554 197.608 158.292C199.359 160.029 201.435 161.404 203.717 162.34C205.999 163.275 208.443 163.751 210.91 163.742ZM195.114 110.346C195.18 106.188 196.869 102.219 199.82 99.2882C202.771 96.3573 206.751 94.6959 210.91 94.6589H253.655C255.755 94.6351 257.84 95.0277 259.788 95.8141C261.736 96.6004 263.509 97.7648 265.004 99.2402C266.499 100.715 267.688 102.472 268.5 104.41C269.313 106.347 269.734 108.426 269.738 110.526V145.032C269.729 147.134 269.305 149.215 268.492 151.154C267.679 153.093 266.491 154.852 264.998 156.332C263.504 157.813 261.734 158.984 259.788 159.78C257.841 160.576 255.758 160.981 253.655 160.971H210.91C208.826 160.962 206.765 160.542 204.843 159.736C202.922 158.93 201.178 157.753 199.711 156.273C198.244 154.793 197.083 153.038 196.295 151.109C195.506 149.181 195.105 147.116 195.114 145.032V110.346ZM326.48 189.432C327.199 191.555 328.998 191.087 329.502 189.756C330.186 187.849 334.18 174.14 334.683 171.765C337.454 170.902 329.646 173.6 353.789 164.821C354.039 164.724 354.255 164.554 354.406 164.332C354.558 164.111 354.639 163.848 354.639 163.58C354.639 163.311 354.558 163.049 354.406 162.827C354.255 162.606 354.039 162.435 353.789 162.338L316.801 147.55C316.574 147.443 316.322 147.397 316.072 147.417C315.821 147.437 315.58 147.522 315.373 147.664C315.165 147.806 314.999 147.999 314.89 148.226C314.78 148.452 314.732 148.703 314.75 148.954C314.75 148.954 324.501 183.711 326.48 189.432ZM318.456 151.4L349.615 163.67C345.441 165.217 338.389 167.879 335.007 169.247C333.496 169.822 332.884 170.074 332.524 170.542C332.165 171.01 333.424 168.203 328.135 184.503L318.456 151.4ZM403.37 45.9051C403.413 46.1209 403.529 46.315 403.701 46.4531C403.872 46.5913 404.086 46.6648 404.306 46.6607C405.061 46.6607 428.341 48.8915 433.09 47.6322C436.149 46.8046 436.688 41.4075 436.976 38.2412C437.336 33.4558 436.976 21.7261 434.961 17.7323C432.227 12.3352 412.042 14.1342 406.177 15.1777C404.62 15.3967 403.132 15.9623 401.823 16.8328C401.061 17.7175 400.617 18.8324 400.564 19.9991C400.528 28.7122 401.47 37.4018 403.37 45.9051ZM404.414 19.6033C410.099 17.8402 426.29 17.1566 431.435 19.6033C433.198 24.2808 434.134 40.3641 432.011 44.1061C428.665 44.9696 408.228 44.9696 404.81 45.0056C404.702 42.1991 403.046 27.0513 404.414 19.6033ZM451.656 45.7612C451.705 45.9739 451.823 46.1641 451.993 46.3011C452.163 46.4382 452.374 46.5142 452.592 46.5168C453.347 46.5168 476.627 48.7476 481.376 47.4883C484.435 46.6607 484.974 41.2636 485.298 38.0973C485.622 33.3119 485.298 21.5822 483.247 17.5884C480.513 12.1553 460.328 13.9903 454.463 15.0337C452.91 15.2676 451.425 15.832 450.109 16.6888C449.363 17.5832 448.922 18.6925 448.85 19.8551C448.816 28.5681 449.758 37.2575 451.656 45.7612ZM452.7 19.4594C458.385 17.6603 474.576 17.0127 479.721 19.4594C481.484 24.1368 482.42 40.2202 480.297 43.9262C476.951 44.8257 456.514 44.8257 453.096 44.8617C452.988 42.0552 451.333 26.9074 452.7 19.4594ZM502.173 47.3443C502.215 47.5602 502.332 47.7542 502.503 47.8924C502.674 48.0306 502.889 48.104 503.109 48.0999C503.864 48.0999 527.144 50.3307 531.893 49.0714C534.952 48.2439 535.491 42.8468 535.779 39.6805C536.139 34.895 535.779 23.1654 533.764 19.1715C531.03 13.7744 510.845 15.5734 504.98 16.6169C503.425 16.8452 501.939 17.41 500.626 18.272C499.864 19.1567 499.42 20.2717 499.367 21.4383C499.331 30.1514 500.272 38.841 502.173 47.3443ZM503.217 21.0425C508.902 19.2795 525.093 18.5958 530.238 21.0425C532.001 25.72 532.937 41.8033 530.814 45.5453C527.468 46.4088 507.031 46.4088 503.612 46.4448C503.504 43.6383 501.849 28.4905 503.217 21.0425ZM451.98 101.099C452.232 101.819 452.808 101.891 452.916 101.855C453.707 101.855 476.951 104.086 481.7 102.826C484.759 101.999 485.298 96.6018 485.622 93.4355C485.946 88.6501 485.622 76.9204 483.607 72.9626C480.837 67.5295 460.652 69.3645 454.823 70.372C453.256 70.5952 451.757 71.1602 450.433 72.0271C449.68 72.9312 449.238 74.0542 449.174 75.2293C449.14 83.9305 450.081 92.608 451.98 101.099ZM453.06 74.7976C458.745 73.0345 474.9 72.3509 480.045 74.7976C481.808 79.4751 482.744 95.5584 480.621 99.3004C477.275 100.164 456.874 100.164 453.455 100.2C453.311 97.3934 451.656 82.2456 453.06 74.7976ZM536.103 71.4874C541.86 62.9959 546.897 55.3321 547.077 54.9723C547.257 54.6124 544.63 51.3742 543.083 53.6769C532.073 70.6238 533.584 69.0047 532.793 68.7169C526.46 66.4141 506.023 67.2057 502.821 70.1921C500.662 72.207 501.49 79.511 501.741 82.6413C499.439 81.3461 497.676 80.4106 497.028 80.1587C495.373 79.511 495.481 81.1302 496.38 81.7059L501.993 85.3039C502.448 90.0324 503.181 94.7301 504.188 99.3724C504.223 99.5915 504.338 99.79 504.511 99.9294C504.684 100.069 504.902 100.14 505.124 100.128C505.879 100.128 529.159 102.359 533.908 101.099C540.097 99.3724 538.19 76.6686 536.103 71.4874ZM505.232 72.9626C513.695 71.0366 522.465 70.8774 530.994 72.4948L518.508 92.1762C517.249 91.4566 510.521 87.4987 504.908 84.3325C504.671 80.5765 504.779 76.8067 505.232 73.0705V72.9626ZM532.829 97.4294C529.446 98.3289 509.045 98.3289 505.627 98.3649C505.627 96.9257 505.088 92.2122 504.836 86.995L518.508 95.4864C518.854 95.5242 519.203 95.4631 519.515 95.3103C519.827 95.1574 520.09 94.919 520.271 94.6229C521.423 93.1477 527.216 84.7282 533.116 76.0569C534.232 82.5334 534.592 94.3351 532.901 97.4294H532.829ZM389.77 20.4668C390.746 20.481 391.705 20.205 392.524 19.6737C393.343 19.1423 393.986 18.3797 394.371 17.4824C394.756 16.5852 394.866 15.5937 394.687 14.6339C394.508 13.674 394.048 12.7889 393.365 12.0909C392.682 11.3929 391.808 10.9135 390.852 10.7133C389.896 10.5132 388.903 10.6014 387.997 10.9667C387.092 11.3321 386.315 11.9581 385.766 12.7655C385.217 13.5728 384.919 14.5251 384.912 15.5015C384.912 16.7999 385.42 18.0468 386.328 18.9749C387.236 19.903 388.472 20.4386 389.77 20.4668Z" fill="white"/>
</svg>
